<svg xmlns="http://www.w3.org/2000/svg" viewBox="0 0 128 128">
  <path fill="#1287B1" d="M64 8C33.1 8 8 33.1 8 64s25.1 56 56 56 56-25.1 56-56S94.9 8 64 8zm0 100c-24.3 0-44-19.7-44-44s19.7-44 44-44 44 19.7 44 44-19.7 44-44 44z"/>
  <path fill="#1287B1" d="M64 32c-17.7 0-32 14.3-32 32s14.3 32 32 32 32-14.3 32-32-14.3-32-32-32zm0 52c-11 0-20-9-20-20s9-20 20-20 20 9 20 20-9 20-20 20z"/>
  <circle fill="#1287B1" cx="64" cy="64" r="12"/>
  <path fill="#1287B1" d="M64 20v12M64 96v12M20 64h12M96 64h12"/>
  <circle fill="#1287B1" cx="64" cy="20" r="6"/>
  <circle fill="#1287B1" cx="64" cy="108" r="6"/>
  <circle fill="#1287B1" cx="20" cy="64" r="6"/>
  <circle fill="#1287B1" cx="108" cy="64" r="6"/>
  <circle fill="#1287B1" cx="33" cy="33" r="5"/>
  <circle fill="#1287B1" cx="95" cy="33" r="5"/>
  <circle fill="#1287B1" cx="33" cy="95" r="5"/>
  <circle fill="#1287B1" cx="95" cy="95" r="5"/>
</svg>
