<svg xmlns="http://www.w3.org/2000/svg" viewBox="0 0 128 128">
  <path fill="#FED10A" d="M14.3 65.1h99.3c.4-2.5.6-5.1.6-7.8 0-4.8-.7-9.4-1.9-13.8H15.6c-1.2 4.4-1.9 9-1.9 13.8 0 2.7.2 5.3.6 7.8z"/>
  <path fill="#00BFB3" d="M21.4 37.3h85.2c-3-6.1-7.1-11.5-12-16.1-10.8-10-25.2-16.1-41-16.1-15.8 0-30.2 6.1-41 16.1-5 4.6-9.1 10-12.1 16.1z"/>
  <path fill="#F04E98" d="M21.4 90.5h85.2c-3 6.1-7.1 11.5-12.1 16.1-10.8 10-25.2 16.1-41 16.1-15.7 0-30.1-6.1-40.9-16.1-5-4.6-9.1-10-12.1-16.1z"/>
  <path fill="#1BA9F5" d="M2.8 71.7c-.5-3.1-.7-6.3-.7-9.5 0-5.3.7-10.5 2-15.4h11.3c-1 4.4-1.5 9-1.5 13.7 0 3.9.4 7.7 1.1 11.3H2.8z"/>
  <path fill="#93C90E" d="M5.1 46.2h8.5c2.8-10.3 8.2-19.5 15.4-27 9.5-9.8 22.2-16.5 36.5-18.5C39.4 3.4 17.1 21.2 5.1 46.2z"/>
  <path fill="#07C" d="M5.1 81.8c12 25 34.3 42.8 60.4 45.6-14.3-2-27-8.7-36.5-18.5-7.2-7.5-12.6-16.8-15.4-27H5.1z"/>
  <path fill="#1BA9F5" d="M125.1 71.7c.5-3.1.7-6.3.7-9.5 0-5.3-.7-10.5-2-15.4h-11.3c1 4.4 1.5 9 1.5 13.7 0 3.9-.4 7.7-1.1 11.3h12.2z"/>
  <path fill="#93C90E" d="M122.9 46.2h-8.5c-2.8-10.3-8.2-19.5-15.4-27-9.5-9.8-22.2-16.5-36.5-18.5 26.1 2.8 48.4 20.6 60.4 45.5z"/>
  <path fill="#07C" d="M122.9 81.8c-12 25-34.3 42.8-60.4 45.6 14.3-2 27-8.7 36.5-18.5 7.2-7.5 12.6-16.8 15.4-27h8.5z"/>
</svg>
