<svg xmlns="http://www.w3.org/2000/svg" viewBox="0 0 128 128">
  <path fill="#003545" d="M64 8C33.1 8 8 33.1 8 64s25.1 56 56 56 56-25.1 56-56S94.9 8 64 8z"/>
  <path fill="#C97B42" d="M89.5 45.2c-3.2-1.8-7.1-2.4-10.8-1.6-4.2.9-7.8 3.4-10.2 6.8-1.8 2.6-3.1 5.6-3.8 8.7-.7-3.1-2-6.1-3.8-8.7-2.4-3.4-6-5.9-10.2-6.8-3.7-.8-7.6-.2-10.8 1.6-3.2 1.8-5.6 4.8-6.6 8.3-.6 2.1-.7 4.3-.4 6.4.6 4.2 2.6 8.1 5.6 11.1 2.4 2.4 5.2 4.4 8.3 5.8 4.4 2.1 9.2 3.3 14 3.5 1.3.1 2.6.1 3.9.1 1.3 0 2.6 0 3.9-.1 4.8-.2 9.6-1.4 14-3.5 3.1-1.4 5.9-3.4 8.3-5.8 3-3 5-6.9 5.6-11.1.3-2.1.2-4.3-.4-6.4-1-3.5-3.4-6.5-6.6-8.3z"/>
  <circle fill="#C97B42" cx="51" cy="58" r="4"/>
  <circle fill="#C97B42" cx="77" cy="58" r="4"/>
  <path fill="#FFF" d="M64 85c-8 0-14-3-14-6s6-6 14-6 14 3 14 6-6 6-14 6z"/>
</svg>
