<svg xmlns="http://www.w3.org/2000/svg" viewBox="0 0 128 128">
  <path fill="#A41E11" d="M121.8 93.1c-6.7 3.5-41.4 17.7-48.8 21.6-7.4 3.9-11.5 3.8-17.3 1S13 98.1 6.3 94.9c-3.4-1.6-5.1-2.9-5.1-4.2V77.5s48-10.4 55.8-13.5c7.8-3 10.4-3.1 17.1-.3 6.7 2.8 47.1 9.8 47.1 9.8v13.6c.2 1.3-1.5 2.6-5.4 4.5z"/>
  <path fill="#D82C20" d="M121.8 80.5C115.1 84 80.4 98.2 73 102.1c-7.4 3.9-11.5 3.8-17.3 1C49 100.2 13 85.5 6.3 82.3-3.5 78.1-1.5 74.8 8 71.2c9.6-3.7 41.2-16.1 49-19.2 7.8-3 10.4-3.1 17.1-.3 6.7 2.8 41.1 16.5 48.5 19.4 7.5 2.9 7.5 6.3-.8 9.4z"/>
  <path fill="#A41E11" d="M121.8 72.5c-6.7 3.5-41.4 17.7-48.8 21.6-7.4 3.9-11.5 3.8-17.3 1S13 77.5 6.3 74.3c-3.4-1.6-5.1-2.9-5.1-4.2V56.9s48-10.4 55.8-13.5c7.8-3 10.4-3.1 17.1-.3 6.7 2.8 47.1 9.8 47.1 9.8v13.6c.2 1.3-1.5 2.6-5.4 4.5z"/>
  <path fill="#D82C20" d="M121.8 59.9C115.1 63.4 80.4 77.6 73 81.5c-7.4 3.9-11.5 3.8-17.3 1C49 79.6 13 64.9 6.3 61.7c-9.8-4.2-7.8-7.5 1.7-11.1 9.6-3.7 41.2-16.1 49-19.2 7.8-3 10.4-3.1 17.1-.3 6.7 2.8 41.1 16.5 48.5 19.4 7.5 2.9 7.5 6.3-.8 9.4z"/>
  <path fill="#A41E11" d="M121.8 51c-6.7 3.5-41.4 17.7-48.8 21.6-7.4 3.9-11.5 3.8-17.3 1S13 56 6.3 52.8c-3.4-1.6-5.1-2.9-5.1-4.2V35.4s48-10.4 55.8-13.5c7.8-3 10.4-3.1 17.1-.3 6.7 2.8 47.1 9.8 47.1 9.8v13.6c.2 1.3-1.5 2.6-5.4 4.5z"/>
  <path fill="#D82C20" d="M121.8 38.3C115.1 41.8 80.4 56 73 59.9c-7.4 3.9-11.5 3.8-17.3 1C49 58 13 43.3 6.3 40.1c-9.8-4.2-7.8-7.5 1.7-11.1 9.6-3.7 41.2-16.1 49-19.2 7.8-3 10.4-3.1 17.1-.3 6.7 2.8 41.1 16.5 48.5 19.4 7.5 2.9 7.5 6.4-.8 9.4z"/>
</svg>
